<svg display="none" xmlns="http://www.w3.org/2000/svg">

<symbol id="user" viewBox="0 0 52 52" fill="none">
    <path d="M10.8333 43.3333V33C10.8333 29.134 13.9673 26 17.8333 26H34.1666C38.0326 26 41.1666 29.134 41.1666 33V43.3333" stroke="white" stroke-width="1.5" stroke-linecap="round" stroke-linejoin="round"/>
    <path d="M25.9999 26C30.7864 26 34.6666 22.1198 34.6666 17.3333C34.6666 12.5468 30.7864 8.66663 25.9999 8.66663C21.2135 8.66663 17.3333 12.5468 17.3333 17.3333C17.3333 22.1198 21.2135 26 25.9999 26Z" stroke="white" stroke-width="1.5" stroke-linecap="round" stroke-linejoin="round"/>
</symbol>

<symbol id="cart" viewBox="0 0 52 52" fill="none">
    <path d="M42.25 47.6666C44.0449 47.6666 45.5 46.2116 45.5 44.4166C45.5 42.6217 44.0449 41.1666 42.25 41.1666C40.4551 41.1666 39 42.6217 39 44.4166C39 46.2116 40.4551 47.6666 42.25 47.6666Z" fill="white" stroke="white" stroke-width="1.5" stroke-linecap="round" stroke-linejoin="round"/>
    <path d="M20.5833 47.6666C22.3782 47.6666 23.8333 46.2116 23.8333 44.4166C23.8333 42.6217 22.3782 41.1666 20.5833 41.1666C18.7883 41.1666 17.3333 42.6217 17.3333 44.4166C17.3333 46.2116 18.7883 47.6666 20.5833 47.6666Z" fill="white" stroke="white" stroke-width="1.5" stroke-linecap="round" stroke-linejoin="round"/>
    <path d="M10.8333 8.66671H47.6666L43.3332 32.5H15.1666L10.8333 8.66671ZM10.8333 8.66671C10.4721 7.22226 8.66658 4.33337 4.33325 4.33337" stroke="white" stroke-width="1.5" stroke-linecap="round" stroke-linejoin="round"/>
    <path d="M43.3334 32.5H15.1667H11.3334C7.46742 32.5 5.41675 34.1927 5.41675 36.8333C5.41675 39.474 7.46742 41.1667 11.3334 41.1667H42.2501" stroke="white" stroke-width="1.5" stroke-linecap="round" stroke-linejoin="round"/>
</symbol>

<symbol id="nav-arrow-up" viewBox="0 0 24 24" fill="none">
    <path d="M6 15L12 9L18 15" stroke="black" stroke-width="1.5" stroke-linecap="round" stroke-linejoin="round"/>
</symbol>

<symbol id="plus" viewBox="0 0 24 24" fill="none">
    <path d="M6 12H12M18 12H12M12 12V6M12 12V18" stroke="black" stroke-width="1" stroke-linecap="round" stroke-linejoin="round"/>
</symbol>

<symbol id="minus" viewBox="0 0 24 24" fill="none">
    <path d="M6 12H18" stroke="black" stroke-width="1.5" stroke-linecap="round" stroke-linejoin="round"/>
</symbol>

<symbol id="tick" viewBox="0 0 24 24" fill="none">
    <path d="M7 12.5L10 15.5L17 8.5" stroke="#33BA28" stroke-linecap="round" stroke-linejoin="round"/>
    <path d="M12 22C17.5228 22 22 17.5228 22 12C22 6.47715 17.5228 2 12 2C6.47715 2 2 6.47715 2 12C2 17.5228 6.47715 22 12 22Z" stroke="#33BA28" stroke-linecap="round" stroke-linejoin="round"/>
</symbol>

</svg>